<svg width="2360" height="1463" viewBox="0 0 2360 1463" fill="none" xmlns="http://www.w3.org/2000/svg">
<path d="M824.051 465.008C777.003 432.145 765.504 367.355 798.367 320.307C831.23 273.259 896.019 261.76 943.068 294.623C1023.37 350.637 1087.5 424.577 1131.54 508.987C1175.88 593.964 1200 688.911 1200 786.329C1200 951.975 1132.82 1101.99 1024.24 1210.57C915.658 1319.15 765.646 1386.33 600 1386.33C434.354 1386.33 284.342 1319.15 175.758 1210.57C67.1802 1101.99 0 951.975 0 786.329C0 688.615 24.2236 593.458 68.7392 508.396C113.095 423.635 177.613 349.497 258.368 293.489C305.638 260.854 370.434 272.716 403.069 319.987C435.704 367.257 423.841 432.052 376.571 464.687C323.848 501.254 281.791 549.516 252.976 604.587C224.304 659.382 208.701 721.577 208.701 786.329C208.701 894.364 252.514 992.201 323.318 1063.01C394.127 1133.81 491.965 1177.63 600 1177.63C708.035 1177.63 805.873 1133.81 876.682 1063.01C947.486 992.201 991.299 894.364 991.299 786.329C991.299 721.78 975.795 659.794 947.301 605.179C918.511 549.99 876.571 501.642 824.051 465.008Z" fill="white"/>
<path fill-rule="evenodd" clip-rule="evenodd" d="M597.801 186C655.196 186 702.146 233.005 702.146 290.344V479.08C702.146 536.419 655.196 583.424 597.801 583.424C540.407 583.424 493.457 536.474 493.457 479.08V290.344C493.457 232.95 540.407 186 597.801 186Z" fill="white"/>
<path d="M1774.82 405.382C1828.62 405.382 1881.38 411.589 1933.11 424.004C1985.88 436.419 2036.06 455.042 2083.65 479.872C2131.24 503.668 2173.14 535.74 2209.35 576.089C2246.59 616.438 2266.77 664.547 2269.87 720.415V785.594V1280.65C2263.67 1342.72 2229.52 1376.35 2167.45 1381.52C2138.48 1381.52 2113.13 1372.21 2091.41 1353.58C2070.71 1333.93 2060.37 1309.61 2060.37 1280.65V768.523C2058.3 736.451 2045.88 710.069 2023.12 689.377C2001.4 667.651 1976.57 650.58 1948.63 638.165C1921.73 625.75 1893.28 616.438 1863.28 610.231C1834.31 604.023 1804.82 600.919 1774.82 600.919C1744.82 600.919 1714.81 604.023 1684.81 610.231C1655.84 616.438 1627.39 625.75 1599.46 638.165C1572.56 650.58 1547.73 667.651 1524.97 689.377C1503.24 710.069 1491.34 736.451 1489.27 768.523V1280.65C1484.1 1342.72 1450.48 1376.35 1388.4 1381.52C1359.43 1381.52 1334.08 1372.21 1312.36 1353.58C1291.67 1333.93 1281.32 1309.61 1281.32 1280.65V785.594V720.415C1284.42 664.547 1304.08 616.438 1340.29 576.089C1376.5 535.74 1418.4 503.668 1466 479.872C1513.59 455.042 1563.25 436.419 1614.98 424.004C1667.74 411.589 1721.02 405.382 1774.82 405.382Z" fill="white"/>
</svg>
