<svg width="2378" height="1463" viewBox="0 0 2378 1463" fill="none" xmlns="http://www.w3.org/2000/svg">
<path d="M824.051 464.695C777.003 431.832 765.504 367.043 798.367 319.994C831.23 272.946 896.019 261.447 943.068 294.31C1023.37 350.325 1087.5 424.265 1131.54 508.675C1175.88 593.651 1200 688.598 1200 786.016C1200 951.662 1132.82 1101.67 1024.24 1210.26C915.658 1318.84 765.646 1386.02 600 1386.02C434.354 1386.02 284.342 1318.84 175.758 1210.26C67.1802 1101.67 0 951.662 0 786.016C0 688.302 24.2236 593.146 68.7392 508.083C113.095 423.322 177.613 349.185 258.368 293.177C305.638 260.542 370.434 272.404 403.069 319.674C435.704 366.944 423.841 431.74 376.571 464.375C323.848 500.941 281.791 549.203 252.976 604.275C224.304 659.069 208.701 721.264 208.701 786.016C208.701 894.052 252.514 991.889 323.318 1062.7C394.127 1133.5 491.965 1177.32 600 1177.32C708.035 1177.32 805.873 1133.5 876.682 1062.7C947.486 991.889 991.299 894.052 991.299 786.016C991.299 721.467 975.795 659.482 947.301 604.866C918.511 549.678 876.571 501.329 824.051 464.695Z" fill="#62A3FE"/>
<path fill-rule="evenodd" clip-rule="evenodd" d="M597.801 185.687C655.196 185.687 702.146 232.692 702.146 290.031V478.767C702.146 536.106 655.196 583.111 597.801 583.111C540.407 583.111 493.457 536.162 493.457 478.767V290.031C493.457 232.637 540.407 185.687 597.801 185.687Z" fill="#62A3FE"/>
<path d="M1792.82 405.382C1846.62 405.382 1899.38 411.589 1951.11 424.004C2003.88 436.419 2054.06 455.042 2101.65 479.872C2149.24 503.668 2191.14 535.74 2227.35 576.089C2264.59 616.438 2284.77 664.547 2287.87 720.415V785.594V1280.65C2281.67 1342.72 2247.52 1376.35 2185.45 1381.52C2156.48 1381.52 2131.13 1372.21 2109.41 1353.58C2088.71 1333.93 2078.37 1309.61 2078.37 1280.65V768.523C2076.3 736.451 2063.88 710.069 2041.12 689.377C2019.4 667.651 1994.57 650.58 1966.63 638.165C1939.73 625.75 1911.28 616.438 1881.28 610.231C1852.31 604.023 1822.82 600.919 1792.82 600.919C1762.82 600.919 1732.81 604.023 1702.81 610.231C1673.84 616.438 1645.39 625.75 1617.46 638.165C1590.56 650.58 1565.73 667.651 1542.97 689.377C1521.24 710.069 1509.34 736.451 1507.27 768.523V1280.65C1502.1 1342.72 1468.48 1376.35 1406.4 1381.52C1377.43 1381.52 1352.08 1372.21 1330.36 1353.58C1309.67 1333.93 1299.32 1309.61 1299.32 1280.65V785.594V720.415C1302.42 664.547 1322.08 616.438 1358.29 576.089C1394.5 535.74 1436.4 503.668 1484 479.872C1531.59 455.042 1581.25 436.419 1632.98 424.004C1685.74 411.589 1739.02 405.382 1792.82 405.382Z" fill="url(#paint0_linear_920_4353)"/>
<defs>
<linearGradient id="paint0_linear_920_4353" x1="681" y1="910" x2="2234.5" y2="925.5" gradientUnits="userSpaceOnUse">
<stop stop-color="#62A3FF"/>
<stop offset="1" stop-color="#615280"/>
</linearGradient>
</defs>
</svg>
