<svg width="2346" height="1463" viewBox="0 0 2346 1463" fill="none" xmlns="http://www.w3.org/2000/svg">
<path d="M824.051 464.695C777.003 431.832 765.504 367.043 798.367 319.995C831.23 272.946 896.019 261.448 943.068 294.311C1023.37 350.325 1087.5 424.265 1131.54 508.675C1175.88 593.651 1200 688.598 1200 786.016C1200 951.662 1132.82 1101.67 1024.24 1210.26C915.658 1318.84 765.646 1386.02 600 1386.02C434.354 1386.02 284.342 1318.84 175.758 1210.26C67.1802 1101.67 0 951.662 0 786.016C0 688.302 24.2236 593.146 68.7392 508.083C113.095 423.322 177.613 349.185 258.368 293.177C305.638 260.542 370.434 272.404 403.069 319.674C435.704 366.944 423.841 431.74 376.571 464.375C323.848 500.941 281.791 549.203 252.976 604.275C224.304 659.069 208.701 721.264 208.701 786.016C208.701 894.052 252.514 991.889 323.318 1062.7C394.127 1133.5 491.965 1177.32 600 1177.32C708.035 1177.32 805.873 1133.5 876.682 1062.7C947.486 991.889 991.299 894.052 991.299 786.016C991.299 721.467 975.795 659.482 947.301 604.866C918.511 549.678 876.571 501.329 824.051 464.695Z" fill="black"/>
<path fill-rule="evenodd" clip-rule="evenodd" d="M597.801 185.688C655.196 185.688 702.146 232.693 702.146 290.032V478.767C702.146 536.107 655.196 583.112 597.801 583.112C540.407 583.112 493.457 536.162 493.457 478.767V290.032C493.457 232.637 540.407 185.688 597.801 185.688Z" fill="black"/>
<path d="M1760.82 405.382C1814.62 405.382 1867.38 411.589 1919.11 424.004C1971.88 436.419 2022.06 455.042 2069.65 479.872C2117.24 503.668 2159.14 535.74 2195.35 576.089C2232.59 616.438 2252.77 664.547 2255.87 720.415V785.594V1280.65C2249.67 1342.72 2215.52 1376.35 2153.45 1381.52C2124.48 1381.52 2099.13 1372.21 2077.41 1353.58C2056.71 1333.93 2046.37 1309.61 2046.37 1280.65V768.523C2044.3 736.451 2031.88 710.069 2009.12 689.377C1987.4 667.651 1962.57 650.58 1934.63 638.165C1907.73 625.75 1879.28 616.438 1849.28 610.231C1820.31 604.023 1790.82 600.919 1760.82 600.919C1730.82 600.919 1700.81 604.023 1670.81 610.231C1641.84 616.438 1613.39 625.75 1585.46 638.165C1558.56 650.58 1533.73 667.651 1510.97 689.377C1489.24 710.069 1477.34 736.451 1475.27 768.523V1280.65C1470.1 1342.72 1436.48 1376.35 1374.4 1381.52C1345.43 1381.52 1320.08 1372.21 1298.36 1353.58C1277.67 1333.93 1267.32 1309.61 1267.32 1280.65V785.594V720.415C1270.42 664.547 1290.08 616.438 1326.29 576.089C1362.5 535.74 1404.4 503.668 1452 479.872C1499.59 455.042 1549.25 436.419 1600.98 424.004C1653.74 411.589 1707.02 405.382 1760.82 405.382Z" fill="black"/>
</svg>
