<svg width="6900" height="1815" viewBox="0 0 6900 1815" fill="none" xmlns="http://www.w3.org/2000/svg">
<path d="M3890.09 854.611C3890.09 884.15 3878.27 908.963 3854.64 929.049C3832.19 947.954 3804.43 957.407 3771.34 957.407H3021.65C3006.29 957.407 2993.88 960.36 2984.43 966.268C2974.97 972.176 2967.88 978.675 2963.16 985.764C2958.43 991.672 2956.07 996.989 2956.07 1001.71C2956.07 1007.62 2958.43 1014.12 2963.16 1021.21C2967.88 1027.12 2974.97 1033.03 2984.43 1038.93C2993.88 1043.66 3006.29 1046.61 3021.65 1047.8H3601.2C3675.64 1048.98 3737.08 1063.75 3785.52 1092.1C3833.96 1119.28 3868.23 1151.77 3888.32 1189.58C3909.58 1226.21 3920.22 1263.43 3920.22 1301.24C3920.22 1337.87 3909.58 1375.09 3888.32 1412.9C3867.05 1449.52 3832.19 1482.02 3783.75 1510.37C3736.49 1537.55 3675.64 1551.14 3601.2 1551.14C3588.2 1552.32 3578.75 1552.91 3572.84 1552.91H2885.18C2852.09 1552.91 2823.73 1543.46 2800.1 1524.55C2777.65 1504.47 2766.43 1480.24 2766.43 1451.89C2766.43 1422.35 2778.24 1397.54 2801.88 1377.45C2824.33 1358.54 2852.09 1349.09 2885.18 1349.09H3615.38C3633.1 1350.27 3647.28 1347.91 3657.91 1342C3669.73 1336.1 3678.59 1329.6 3684.5 1322.51C3690.41 1315.42 3693.36 1308.33 3693.36 1301.24C3693.36 1297.69 3690.41 1291.79 3684.5 1283.52C3678.59 1274.06 3669.73 1266.97 3657.91 1262.25C3647.28 1256.34 3633.1 1252.8 3615.38 1251.61H3034.05C2965.52 1250.43 2908.81 1236.25 2863.91 1209.08C2819.01 1180.72 2787.11 1148.23 2768.2 1111.6C2749.3 1074.97 2739.84 1038.34 2739.84 1001.71C2739.84 965.087 2749.3 929.049 2768.2 893.603C2788.29 856.974 2820.19 825.663 2863.91 799.669C2908.81 772.493 2965.52 757.724 3034.05 755.361C3045.87 754.179 3054.73 753.588 3060.64 753.588H3771.34C3804.43 753.588 3832.19 763.631 3854.64 783.718C3878.27 802.623 3890.09 826.254 3890.09 854.611ZM4501.54 482.421C4534.63 482.421 4562.98 493.646 4586.62 516.095C4610.25 537.364 4622.65 564.539 4623.83 597.623V751.816H5226.43C5259.51 751.816 5287.87 763.041 5311.5 785.49C5333.95 809.121 5345.17 837.479 5345.17 870.562C5345.17 903.646 5333.36 932.003 5309.73 955.634C5287.28 978.084 5259.51 989.309 5226.43 989.309H4623.83V1024.76C4622.65 1073.2 4625.61 1118.1 4632.7 1159.45C4640.97 1199.63 4659.87 1235.66 4689.41 1267.56C4718.95 1299.47 4756.17 1316.6 4801.07 1318.96H5233.52C5266.6 1320.14 5293.78 1332.55 5315.05 1356.18C5337.49 1379.81 5348.72 1408.17 5348.72 1441.25C5347.54 1473.16 5335.72 1500.33 5313.27 1522.78C5292 1544.05 5265.42 1555.27 5233.52 1556.46H4740.81C4658.1 1551.73 4589.57 1523.96 4535.22 1473.16C4482.05 1421.17 4443.65 1357.95 4420.02 1283.52C4397.57 1209.08 4385.75 1129.91 4384.57 1046.02V989.309H4180.75C4147.67 989.309 4119.9 977.493 4097.45 953.862C4073.82 931.412 4062.01 903.646 4062.01 870.562C4062.01 837.479 4073.23 809.712 4095.68 787.263C4119.31 763.631 4147.67 751.816 4180.75 751.816H4384.57V597.623C4385.75 565.721 4397.57 539.136 4420.02 517.868C4442.47 495.418 4469.64 483.603 4501.54 482.421ZM6009.8 1008.8C5977.9 948.545 5937.73 891.239 5889.28 836.888C5840.84 782.536 5794.17 752.997 5749.27 748.271H5600.39C5567.31 748.271 5539.54 736.456 5517.09 712.825C5493.46 690.375 5481.64 662.608 5481.64 629.525C5481.64 596.441 5492.87 568.675 5515.32 546.225C5538.95 522.594 5567.31 510.778 5600.39 510.778H5749.27V512.551H5766.99C5852.06 517.277 5940.09 565.13 6031.07 656.11C6075.97 702.191 6117.32 754.179 6155.13 812.075C6192.94 754.179 6234.89 702.191 6280.97 656.11C6370.77 565.13 6458.2 517.277 6543.27 512.551H6561V510.778H6709.87C6742.96 510.778 6770.72 522.594 6793.17 546.225C6816.8 568.675 6828.62 596.441 6828.62 629.525C6828.62 662.608 6816.8 690.375 6793.17 712.825C6770.72 736.456 6742.96 748.271 6709.87 748.271H6561C6516.1 752.997 6469.43 782.536 6420.98 836.888C6372.54 891.239 6332.36 948.545 6300.46 1008.8C6293.37 1021.8 6286.28 1034.21 6279.19 1046.02C6281.56 1049.57 6283.92 1053.11 6286.28 1056.66C6318.19 1118.1 6358.36 1175.99 6406.8 1230.35C6455.25 1284.7 6501.92 1313.65 6546.82 1317.19H6695.69C6728.78 1317.19 6756.54 1329.01 6778.99 1352.64C6802.62 1375.09 6814.44 1402.85 6814.44 1435.94C6814.44 1469.02 6802.62 1497.38 6778.99 1521.01C6756.54 1543.46 6728.78 1554.68 6695.69 1554.68H6529.09C6444.02 1549.96 6356.59 1502.69 6266.79 1412.9C6226.62 1371.54 6189.4 1326.64 6155.13 1278.2C6120.87 1326.64 6083.65 1371.54 6043.47 1412.9C5953.68 1502.69 5866.24 1549.96 5781.17 1554.68H5614.57C5581.49 1554.68 5553.13 1543.46 5529.5 1521.01C5507.05 1497.38 5495.82 1469.02 5495.82 1435.94C5495.82 1402.85 5507.64 1375.09 5531.27 1352.64C5553.72 1329.01 5581.49 1317.19 5614.57 1317.19H5763.45C5808.34 1313.65 5855.02 1284.7 5903.46 1230.35C5951.9 1175.99 5992.08 1118.1 6023.98 1056.66C6026.34 1053.11 6028.7 1049.57 6031.07 1046.02C6023.98 1034.21 6016.89 1021.8 6009.8 1008.8Z" fill="#3282FC"/>
<path d="M824.051 638.695C777.003 605.832 765.504 541.043 798.367 493.994C831.23 446.946 896.019 435.447 943.068 468.31C1023.37 524.325 1087.5 598.265 1131.54 682.675C1175.88 767.651 1200 862.598 1200 960.016C1200 1125.66 1132.82 1275.67 1024.24 1384.26C915.658 1492.84 765.646 1560.02 600 1560.02C434.354 1560.02 284.342 1492.84 175.758 1384.26C67.1802 1275.67 0 1125.66 0 960.016C0 862.302 24.2236 767.146 68.7392 682.083C113.095 597.322 177.613 523.185 258.368 467.177C305.638 434.542 370.434 446.404 403.069 493.674C435.704 540.944 423.841 605.74 376.571 638.375C323.848 674.941 281.791 723.203 252.976 778.275C224.304 833.069 208.701 895.264 208.701 960.016C208.701 1068.05 252.514 1165.89 323.318 1236.7C394.127 1307.5 491.965 1351.32 600 1351.32C708.035 1351.32 805.873 1307.5 876.682 1236.7C947.486 1165.89 991.299 1068.05 991.299 960.016C991.299 895.467 975.795 833.482 947.301 778.866C918.511 723.678 876.571 675.329 824.051 638.695Z" fill="#3282FC"/>
<path fill-rule="evenodd" clip-rule="evenodd" d="M597.801 359.687C655.196 359.687 702.146 406.692 702.146 464.031V652.767C702.146 710.106 655.196 757.111 597.801 757.111C540.407 757.111 493.457 710.162 493.457 652.767V464.031C493.457 406.637 540.407 359.687 597.801 359.687Z" fill="#3282FC"/>
<path d="M1792.82 579.382C1846.62 579.382 1899.38 585.589 1951.11 598.004C2003.88 610.419 2054.06 629.042 2101.65 653.872C2149.24 677.668 2191.14 709.74 2227.35 750.089C2264.59 790.438 2284.77 838.547 2287.87 894.415V959.594V1454.65C2281.67 1516.72 2247.52 1550.35 2185.45 1555.52C2156.48 1555.52 2131.13 1546.21 2109.41 1527.58C2088.71 1507.93 2078.37 1483.61 2078.37 1454.65V942.523C2076.3 910.451 2063.88 884.069 2041.12 863.377C2019.4 841.651 1994.57 824.58 1966.63 812.165C1939.73 799.75 1911.28 790.438 1881.28 784.231C1852.31 778.023 1822.82 774.919 1792.82 774.919C1762.82 774.919 1732.81 778.023 1702.81 784.231C1673.84 790.438 1645.39 799.75 1617.46 812.165C1590.56 824.58 1565.73 841.651 1542.97 863.377C1521.24 884.069 1509.34 910.451 1507.27 942.523V1454.65C1502.1 1516.72 1468.48 1550.35 1406.4 1555.52C1377.43 1555.52 1352.08 1546.21 1330.36 1527.58C1309.67 1507.93 1299.32 1483.61 1299.32 1454.65V959.594V894.415C1302.42 838.547 1322.08 790.438 1358.29 750.089C1394.5 709.74 1436.4 677.668 1484 653.872C1531.59 629.042 1581.25 610.419 1632.98 598.004C1685.74 585.589 1739.02 579.382 1792.82 579.382Z" fill="#3282FC"/>
</svg>
