<svg width="7094" height="2078" viewBox="0 0 7094 2078" fill="none" xmlns="http://www.w3.org/2000/svg">
<path d="M3890.09 1080.61C3890.09 1110.15 3878.27 1134.96 3854.64 1155.05C3832.19 1173.95 3804.43 1183.41 3771.34 1183.41H3021.65C3006.29 1183.41 2993.88 1186.36 2984.43 1192.27C2974.97 1198.18 2967.88 1204.67 2963.16 1211.76C2958.43 1217.67 2956.07 1222.99 2956.07 1227.71C2956.07 1233.62 2958.43 1240.12 2963.16 1247.21C2967.88 1253.12 2974.97 1259.03 2984.43 1264.93C2993.88 1269.66 3006.29 1272.61 3021.65 1273.8H3601.2C3675.64 1274.98 3737.08 1289.75 3785.52 1318.1C3833.96 1345.28 3868.23 1377.77 3888.32 1415.58C3909.58 1452.21 3920.22 1489.43 3920.22 1527.24C3920.22 1563.87 3909.58 1601.09 3888.32 1638.9C3867.05 1675.52 3832.19 1708.02 3783.75 1736.37C3736.49 1763.55 3675.64 1777.14 3601.2 1777.14C3588.2 1778.32 3578.75 1778.91 3572.84 1778.91H2885.18C2852.09 1778.91 2823.73 1769.46 2800.1 1750.55C2777.65 1730.47 2766.43 1706.24 2766.43 1677.89C2766.43 1648.35 2778.24 1623.54 2801.88 1603.45C2824.33 1584.54 2852.09 1575.09 2885.18 1575.09H3615.38C3633.1 1576.27 3647.28 1573.91 3657.91 1568C3669.73 1562.1 3678.59 1555.6 3684.5 1548.51C3690.41 1541.42 3693.36 1534.33 3693.36 1527.24C3693.36 1523.69 3690.41 1517.79 3684.5 1509.52C3678.59 1500.06 3669.73 1492.97 3657.91 1488.25C3647.28 1482.34 3633.1 1478.8 3615.38 1477.61H3034.05C2965.52 1476.43 2908.81 1462.25 2863.91 1435.08C2819.01 1406.72 2787.11 1374.23 2768.2 1337.6C2749.3 1300.97 2739.84 1264.34 2739.84 1227.71C2739.84 1191.09 2749.3 1155.05 2768.2 1119.6C2788.29 1082.97 2820.19 1051.66 2863.91 1025.67C2908.81 998.493 2965.52 983.724 3034.05 981.361C3045.87 980.179 3054.73 979.588 3060.64 979.588H3771.34C3804.43 979.588 3832.19 989.631 3854.64 1009.72C3878.27 1028.62 3890.09 1052.25 3890.09 1080.61ZM4501.54 708.421C4534.63 708.421 4562.98 719.646 4586.62 742.095C4610.25 763.364 4622.65 790.539 4623.83 823.623V977.816H5226.43C5259.51 977.816 5287.87 989.041 5311.5 1011.49C5333.95 1035.12 5345.17 1063.48 5345.17 1096.56C5345.17 1129.65 5333.36 1158 5309.73 1181.63C5287.28 1204.08 5259.51 1215.31 5226.43 1215.31H4623.83V1250.76C4622.65 1299.2 4625.61 1344.1 4632.7 1385.45C4640.97 1425.63 4659.87 1461.66 4689.41 1493.56C4718.95 1525.47 4756.17 1542.6 4801.07 1544.96H5233.52C5266.6 1546.14 5293.78 1558.55 5315.05 1582.18C5337.49 1605.81 5348.72 1634.17 5348.72 1667.25C5347.54 1699.16 5335.72 1726.33 5313.27 1748.78C5292 1770.05 5265.42 1781.27 5233.52 1782.46H4740.81C4658.1 1777.73 4589.57 1749.96 4535.22 1699.16C4482.05 1647.17 4443.65 1583.95 4420.02 1509.52C4397.57 1435.08 4385.75 1355.91 4384.57 1272.02V1215.31H4180.75C4147.67 1215.31 4119.9 1203.49 4097.45 1179.86C4073.82 1157.41 4062.01 1129.65 4062.01 1096.56C4062.01 1063.48 4073.23 1035.71 4095.68 1013.26C4119.31 989.631 4147.67 977.816 4180.75 977.816H4384.57V823.623C4385.75 791.721 4397.57 765.136 4420.02 743.868C4442.47 721.418 4469.64 709.603 4501.54 708.421Z" fill="url(#paint0_linear_920_4321)"/>
<path d="M6074.86 1154.98C6038.34 1085.99 5992.35 1020.39 5936.89 958.164C5881.43 895.941 5828 862.124 5776.6 856.713H5606.16C5568.29 856.713 5536.5 843.186 5510.8 816.133C5483.75 790.432 5470.22 758.644 5470.22 720.769C5470.22 682.894 5483.07 651.107 5508.77 625.406C5535.82 598.352 5568.29 584.825 5606.16 584.825H5776.6V586.854H5796.89C5894.28 592.265 5995.06 647.048 6099.21 751.204C6150.61 803.959 6197.96 863.476 6241.24 929.757C6284.53 863.476 6332.55 803.959 6385.3 751.204C6488.11 647.048 6588.2 592.265 6685.6 586.854H6705.89V584.825H6876.32C6914.2 584.825 6945.99 598.352 6971.69 625.406C6998.74 651.107 7012.27 682.894 7012.27 720.769C7012.27 758.644 6998.74 790.432 6971.69 816.133C6945.99 843.186 6914.2 856.713 6876.32 856.713H6705.89C6654.48 862.124 6601.05 895.941 6545.59 958.164C6490.13 1020.39 6444.14 1085.99 6407.62 1154.98C6399.51 1169.86 6391.39 1184.06 6383.27 1197.59C6385.98 1201.64 6388.68 1205.7 6391.39 1209.76C6427.91 1280.1 6473.9 1346.38 6529.36 1408.6C6584.82 1470.83 6638.25 1503.97 6689.65 1508.03H6860.09C6897.97 1508.03 6929.75 1521.55 6955.45 1548.61C6982.51 1574.31 6996.03 1606.09 6996.03 1643.97C6996.03 1681.84 6982.51 1714.31 6955.45 1741.36C6929.75 1767.06 6897.97 1779.91 6860.09 1779.91H6669.36C6571.97 1774.5 6471.87 1720.4 6369.07 1617.59C6323.08 1570.25 6280.47 1518.85 6241.24 1463.39C6202.02 1518.85 6159.41 1570.25 6113.41 1617.59C6010.61 1720.4 5910.51 1774.5 5813.12 1779.91H5622.39C5584.52 1779.91 5552.06 1767.06 5525 1741.36C5499.3 1714.31 5486.45 1681.84 5486.45 1643.97C5486.45 1606.09 5499.98 1574.31 5527.03 1548.61C5552.73 1521.55 5584.52 1508.03 5622.39 1508.03H5792.83C5844.23 1503.97 5897.66 1470.83 5953.12 1408.6C6008.58 1346.38 6054.57 1280.1 6091.1 1209.76C6093.8 1205.7 6096.51 1201.64 6099.21 1197.59C6091.1 1184.06 6082.98 1169.86 6074.86 1154.98Z" fill="url(#paint1_linear_920_4321)"/>
<path d="M824.051 864.695C777.003 831.832 765.504 767.043 798.367 719.994C831.23 672.946 896.019 661.447 943.068 694.31C1023.37 750.325 1087.5 824.265 1131.54 908.675C1175.88 993.651 1200 1088.6 1200 1186.02C1200 1351.66 1132.82 1501.67 1024.24 1610.26C915.658 1718.84 765.646 1786.02 600 1786.02C434.354 1786.02 284.342 1718.84 175.758 1610.26C67.1802 1501.67 0 1351.66 0 1186.02C0 1088.3 24.2236 993.146 68.7392 908.083C113.095 823.322 177.613 749.185 258.368 693.177C305.638 660.542 370.434 672.404 403.069 719.674C435.704 766.944 423.841 831.74 376.571 864.375C323.848 900.941 281.791 949.203 252.976 1004.27C224.304 1059.07 208.701 1121.26 208.701 1186.02C208.701 1294.05 252.514 1391.89 323.318 1462.7C394.127 1533.5 491.965 1577.32 600 1577.32C708.035 1577.32 805.873 1533.5 876.682 1462.7C947.486 1391.89 991.299 1294.05 991.299 1186.02C991.299 1121.47 975.795 1059.48 947.301 1004.87C918.511 949.678 876.571 901.329 824.051 864.695Z" fill="#62A3FE"/>
<path fill-rule="evenodd" clip-rule="evenodd" d="M597.801 585.687C655.196 585.687 702.146 632.692 702.146 690.031V878.767C702.146 936.106 655.196 983.111 597.801 983.111C540.407 983.111 493.457 936.162 493.457 878.767V690.031C493.457 632.637 540.407 585.687 597.801 585.687Z" fill="#62A3FE"/>
<path d="M1792.82 805.382C1846.62 805.382 1899.38 811.589 1951.11 824.004C2003.88 836.419 2054.06 855.042 2101.65 879.872C2149.24 903.668 2191.14 935.74 2227.35 976.089C2264.59 1016.44 2284.77 1064.55 2287.87 1120.41V1185.59V1680.65C2281.67 1742.72 2247.52 1776.35 2185.45 1781.52C2156.48 1781.52 2131.13 1772.21 2109.41 1753.58C2088.71 1733.93 2078.37 1709.61 2078.37 1680.65V1168.52C2076.3 1136.45 2063.88 1110.07 2041.12 1089.38C2019.4 1067.65 1994.57 1050.58 1966.63 1038.16C1939.73 1025.75 1911.28 1016.44 1881.28 1010.23C1852.31 1004.02 1822.82 1000.92 1792.82 1000.92C1762.82 1000.92 1732.81 1004.02 1702.81 1010.23C1673.84 1016.44 1645.39 1025.75 1617.46 1038.16C1590.56 1050.58 1565.73 1067.65 1542.97 1089.38C1521.24 1110.07 1509.34 1136.45 1507.27 1168.52V1680.65C1502.1 1742.72 1468.48 1776.35 1406.4 1781.52C1377.43 1781.52 1352.08 1772.21 1330.36 1753.58C1309.67 1733.93 1299.32 1709.61 1299.32 1680.65V1185.59V1120.41C1302.42 1064.55 1322.08 1016.44 1358.29 976.089C1394.5 935.74 1436.4 903.668 1484 879.872C1531.59 855.042 1581.25 836.419 1632.98 824.004C1685.74 811.589 1739.02 805.382 1792.82 805.382Z" fill="url(#paint2_linear_920_4321)"/>
<defs>
<linearGradient id="paint0_linear_920_4321" x1="-1013" y1="1461" x2="6138.5" y2="1477" gradientUnits="userSpaceOnUse">
<stop stop-color="#62A3FF"/>
<stop offset="1" stop-color="#615280"/>
</linearGradient>
<linearGradient id="paint1_linear_920_4321" x1="3468.5" y1="1159" x2="6965" y2="1159" gradientUnits="userSpaceOnUse">
<stop stop-color="#62A3FF"/>
<stop offset="0.711538" stop-color="#615280"/>
</linearGradient>
<linearGradient id="paint2_linear_920_4321" x1="1514" y1="1318" x2="2817" y2="1318" gradientUnits="userSpaceOnUse">
<stop stop-color="#62A3FF"/>
<stop offset="1" stop-color="#615280"/>
</linearGradient>
</defs>
</svg>
