<svg width="8688" height="1955" viewBox="0 0 8688 1955" fill="none" xmlns="http://www.w3.org/2000/svg">
<path d="M2929.12 549.54H3734.95C3770.6 550.813 3799.88 564.18 3822.79 589.641C3846.98 615.102 3859.07 645.655 3859.07 681.3C3852.71 757.682 3811.34 799.056 3734.95 805.421H2994.04C2945.67 807.967 2905.57 826.426 2873.74 860.799C2841.92 895.171 2818.36 934.635 2803.09 979.191C2789.08 1022.47 2782.08 1067.03 2782.08 1112.86C2782.08 1158.69 2789.08 1203.88 2803.09 1248.44C2818.36 1291.72 2841.92 1330.55 2873.74 1364.92C2905.57 1399.29 2945.67 1417.75 2994.04 1420.3H3574.55C3597.47 1419.03 3609.56 1406.3 3610.83 1382.11V1271.35C3609.56 1245.89 3597.47 1233.16 3574.55 1233.16H3085.7C3050.06 1233.16 3019.5 1221.07 2994.04 1196.88C2969.86 1171.42 2957.76 1140.87 2957.76 1105.22C2957.76 1069.58 2969.86 1039.02 2994.04 1013.56C3019.5 989.376 3050.06 977.282 3085.7 977.282H3738.77C3774.42 977.282 3804.97 989.376 3830.43 1013.56C3853.35 1037.75 3865.44 1067.03 3866.71 1101.4V1105.22V1552.06C3865.44 1586.43 3853.35 1615.07 3830.43 1637.99C3806.24 1662.18 3776.96 1674.91 3742.59 1676.18H2929.12C2840.01 1671.09 2766.17 1637.35 2707.61 1574.97C2650.32 1511.32 2608.95 1439.4 2583.49 1359.19C2559.3 1278.99 2547.21 1196.88 2547.21 1112.86C2547.21 1028.84 2559.94 946.729 2585.4 866.527C2610.86 786.326 2652.23 715.035 2709.52 652.656C2766.81 589.004 2840.01 554.632 2929.12 549.54ZM4419.34 1720.1C4353.14 1720.1 4287.58 1712.46 4222.66 1697.19C4159 1681.91 4097.9 1659.63 4039.34 1630.35C3980.78 1599.8 3929.22 1559.7 3884.66 1510.05C3840.11 1460.4 3815.92 1401.2 3812.1 1332.46V1252.26V643.109C3812.1 607.463 3824.83 578.184 3850.29 555.269C3877.02 531.081 3908.21 518.987 3943.86 518.987C4020.24 525.352 4061.62 566.726 4067.98 643.109V1273.26C4070.53 1312.73 4085.17 1345.83 4111.9 1372.56C4139.91 1398.02 4170.46 1418.39 4203.56 1433.67C4237.93 1448.94 4272.94 1460.4 4308.59 1468.04C4345.5 1475.68 4382.42 1479.5 4419.34 1479.5C4456.26 1479.5 4492.54 1475.68 4528.18 1468.04C4565.1 1460.4 4600.11 1448.94 4633.21 1433.67C4667.58 1418.39 4698.14 1398.02 4724.87 1372.56C4752.88 1345.83 4768.15 1312.73 4770.7 1273.26V643.109C4770.7 607.463 4783.43 578.184 4808.89 555.269C4835.62 531.081 4866.81 518.987 4902.46 518.987C4978.84 525.352 5020.85 566.726 5028.49 643.109V1252.26V1332.46C5024.67 1401.2 4999.85 1460.4 4954.02 1510.05C4909.46 1559.7 4857.9 1599.8 4799.34 1630.35C4740.78 1659.63 4679.04 1681.91 4614.12 1697.19C4550.46 1712.46 4485.54 1720.1 4419.34 1720.1ZM5418.8 1380.2C5418.8 1344.55 5430.9 1314.64 5455.09 1290.45C5480.55 1264.99 5511.1 1252.26 5546.74 1252.26H5838.91L5789.26 1110.95C5768.89 1058.76 5748.52 1009.74 5728.15 963.915C5709.06 916.812 5686.78 874.165 5661.32 835.974C5638.4 797.783 5612.31 777.414 5583.03 774.868C5552.47 777.414 5525.1 797.783 5500.92 835.974C5476.73 874.165 5454.45 916.812 5434.08 963.915C5414.98 1009.74 5395.25 1058.76 5374.88 1110.95L5193.48 1607.44C5180.75 1634.17 5164.2 1656.45 5143.83 1674.27C5124.73 1690.82 5095.45 1699.1 5055.99 1699.1C5019.07 1699.1 4988.52 1686.37 4964.33 1660.9C4941.41 1635.44 4931.23 1604.89 4933.78 1569.25C4935.05 1552.7 4938.87 1537.42 4945.23 1523.42L5155.28 981.101C5213.84 838.52 5272.4 723.31 5330.96 635.47C5388.25 548.904 5472.27 504.984 5583.03 503.711C5692.51 504.984 5775.89 548.904 5833.18 635.47C5891.74 720.764 5950.3 835.974 6008.86 981.101L6218.91 1523.42C6225.28 1537.42 6229.09 1552.7 6230.37 1569.25C6232.91 1604.89 6222.09 1635.44 6197.9 1660.9C6174.99 1686.37 6145.07 1699.1 6108.16 1699.1C6066.15 1699.1 6034.96 1690.82 6014.59 1674.27C5995.49 1656.45 5979.58 1634.17 5966.85 1607.44L5930.57 1508.14H5546.74C5511.1 1508.14 5481.18 1495.41 5457 1469.95C5431.53 1445.76 5418.8 1415.84 5418.8 1380.2ZM6385.81 1578.79C6378.17 1655.18 6336.16 1696.55 6259.77 1702.91C6224.13 1702.91 6192.94 1691.46 6166.21 1668.54C6140.75 1644.35 6128.01 1614.44 6128.01 1578.79V673.662C6129.29 638.016 6142.65 608.737 6168.12 585.822C6193.58 561.634 6224.13 549.54 6259.77 549.54H6353.34H6588.22H7059.88C7067.52 549.54 7075.16 550.177 7082.79 551.45H7094.25C7183.37 553.996 7256.57 574.364 7313.85 612.556C7371.14 650.747 7412.51 694.667 7437.97 744.315C7463.43 792.691 7476.16 841.703 7476.16 891.351C7476.16 942.273 7463.43 992.558 7437.97 1042.21C7413.79 1090.58 7372.41 1133.87 7313.85 1172.06C7256.57 1210.25 7183.37 1230.62 7094.25 1233.16H6758.17C6768.35 1296.81 6789.36 1343.92 6821.19 1374.47C6851.74 1405.02 6890.57 1420.3 6937.67 1420.3H7350.13C7385.78 1421.57 7415.06 1434.94 7437.97 1460.4C7462.16 1485.86 7474.25 1516.41 7474.25 1552.06C7472.98 1586.43 7460.25 1615.71 7436.06 1639.9C7413.15 1662.81 7384.51 1674.91 7350.13 1676.18H6903.3C6809.09 1677.45 6723.8 1640.54 6647.42 1565.43C6571.03 1490.32 6524.57 1401.2 6508.02 1298.09C6485.1 1183.51 6473.65 1119.23 6473.65 1105.22C6473.65 1069.58 6485.74 1039.66 6509.93 1015.47C6535.39 990.012 6565.94 977.282 6601.59 977.282H7105.71C7129.9 976.009 7149.63 970.917 7164.91 962.005C7181.46 951.821 7193.55 941 7201.19 929.543C7208.83 916.812 7212.65 904.082 7212.65 891.351C7212.65 878.621 7208.83 866.527 7201.19 855.07C7193.55 842.339 7181.46 831.519 7164.91 822.607C7149.63 812.423 7129.9 806.694 7105.71 805.421H6588.22H6435.45C6402.35 806.694 6385.81 823.244 6385.81 855.07V1578.79ZM8217.84 549.54C8306.95 554.632 8380.15 589.004 8437.44 652.656C8494.72 715.035 8536.1 786.326 8561.56 866.527C8587.02 946.729 8599.75 1028.84 8599.75 1112.86C8599.75 1196.88 8587.02 1278.99 8561.56 1359.19C8537.37 1439.4 8496 1511.32 8437.44 1574.97C8380.15 1637.35 8306.95 1671.09 8217.84 1676.18H7515.12C7480.75 1674.91 7451.47 1662.81 7427.28 1639.9C7404.36 1615.71 7392.27 1586.43 7391 1552.06V1078.49C7392.27 1042.84 7405.64 1013.56 7431.1 990.649C7456.56 966.461 7487.11 954.367 7522.76 954.367C7557.13 955.64 7586.41 968.37 7610.6 992.558C7634.79 1015.47 7647.52 1044.12 7648.79 1078.49V1368.74C7648.79 1403.11 7666.61 1420.3 7702.26 1420.3H8152.91C8201.29 1417.75 8241.39 1399.29 8273.21 1364.92C8305.04 1330.55 8327.96 1291.72 8341.96 1248.44C8357.24 1203.88 8364.87 1158.69 8364.87 1112.86C8364.87 1067.03 8357.24 1022.47 8341.96 979.191C8327.96 934.635 8305.04 895.171 8273.21 860.799C8241.39 826.426 8201.29 807.967 8152.91 805.421H7515.12C7438.74 799.056 7397.36 757.682 7391 681.3C7391 645.655 7402.46 615.102 7425.37 589.641C7449.56 564.18 7479.47 550.813 7515.12 549.54H8217.84Z" fill="url(#paint0_linear_924_3506)"/>
<path d="M824.051 801.695C777.003 768.832 765.504 704.043 798.367 656.995C831.23 609.946 896.019 598.448 943.068 631.311C1023.37 687.325 1087.5 761.265 1131.54 845.675C1175.88 930.651 1200 1025.6 1200 1123.02C1200 1288.66 1132.82 1438.67 1024.24 1547.26C915.658 1655.84 765.646 1723.02 600 1723.02C434.354 1723.02 284.342 1655.84 175.758 1547.26C67.1802 1438.67 0 1288.66 0 1123.02C0 1025.3 24.2236 930.146 68.7392 845.083C113.095 760.322 177.613 686.185 258.368 630.177C305.638 597.542 370.434 609.404 403.069 656.674C435.704 703.944 423.841 768.74 376.571 801.375C323.848 837.941 281.791 886.203 252.976 941.275C224.304 996.069 208.701 1058.26 208.701 1123.02C208.701 1231.05 252.514 1328.89 323.318 1399.7C394.127 1470.5 491.965 1514.32 600 1514.32C708.035 1514.32 805.873 1470.5 876.682 1399.7C947.486 1328.89 991.299 1231.05 991.299 1123.02C991.299 1058.47 975.795 996.482 947.301 941.866C918.511 886.678 876.571 838.329 824.051 801.695Z" fill="black"/>
<path fill-rule="evenodd" clip-rule="evenodd" d="M597.801 522.688C655.196 522.688 702.146 569.693 702.146 627.032V815.767C702.146 873.107 655.196 920.112 597.801 920.112C540.407 920.112 493.457 873.162 493.457 815.767V627.032C493.457 569.637 540.407 522.688 597.801 522.688Z" fill="black"/>
<path d="M1655.45 517.982C1721.65 517.982 1786.58 525.62 1850.23 540.897C1915.15 556.173 1976.89 579.088 2035.45 609.641C2094.01 638.921 2145.57 678.385 2190.13 728.034C2235.96 777.682 2260.78 836.879 2264.6 905.623V985.824V1594.97C2256.96 1671.36 2214.95 1712.73 2138.57 1719.1C2102.93 1719.1 2071.74 1707.64 2045 1684.72C2019.54 1660.54 2006.81 1630.62 2006.81 1594.97V964.819C2004.27 925.355 1988.99 892.893 1960.98 867.432C1934.25 840.698 1903.69 819.693 1869.32 804.416C1836.22 789.14 1801.22 777.682 1764.3 770.044C1728.65 762.406 1692.37 758.587 1655.45 758.587C1618.53 758.587 1581.62 762.406 1544.7 770.044C1509.05 777.682 1474.04 789.14 1439.67 804.416C1406.57 819.693 1376.02 840.698 1348.01 867.432C1321.28 892.893 1306.64 925.355 1304.09 964.819V1594.97C1297.73 1671.36 1256.35 1712.73 1179.97 1719.1C1144.33 1719.1 1113.14 1707.64 1086.4 1684.72C1060.94 1660.54 1048.21 1630.62 1048.21 1594.97V985.824V905.623C1052.03 836.879 1076.22 777.682 1120.78 728.034C1165.33 678.385 1216.89 638.921 1275.45 609.641C1334.01 579.088 1395.12 556.173 1458.77 540.897C1523.69 525.62 1589.25 517.982 1655.45 517.982Z" fill="black"/>
<defs>
<linearGradient id="paint0_linear_924_3506" x1="5567" y1="856.5" x2="5690.23" y2="2593.52" gradientUnits="userSpaceOnUse">
<stop offset="0.0240385" stop-color="#734FBF"/>
<stop offset="1" stop-color="#00337E"/>
</linearGradient>
</defs>
</svg>
