<svg width="6168" height="1955" viewBox="0 0 6168 1955" fill="none" xmlns="http://www.w3.org/2000/svg">
<path d="M3801.79 677.481C3801.79 713.126 3789.06 743.042 3763.6 767.23C3739.41 792.691 3709.49 805.421 3673.85 805.421H2910.02C2885.84 806.694 2865.47 812.423 2848.92 822.607C2833.64 831.519 2822.18 842.339 2814.55 855.07C2806.91 866.527 2803.09 878.621 2803.09 891.351C2803.09 904.082 2806.91 916.812 2814.55 929.543C2822.18 941 2833.64 951.821 2848.92 962.005C2865.47 970.917 2885.84 976.009 2910.02 977.282H3452.34C3541.45 979.828 3614.65 1000.83 3671.94 1040.3C3730.5 1078.49 3771.87 1123.04 3796.06 1173.97C3821.52 1223.62 3834.25 1274.54 3834.25 1326.73C3834.25 1377.65 3821.52 1428.57 3796.06 1479.5C3770.6 1529.14 3729.22 1573.7 3671.94 1613.17C3614.65 1651.36 3541.45 1670.45 3452.34 1670.45H3440.88C3433.24 1671.73 3425.6 1672.36 3417.97 1672.36H2696.15C2660.51 1672.36 2629.95 1660.27 2604.49 1636.08C2580.31 1610.62 2568.21 1580.07 2568.21 1544.42C2568.21 1508.78 2580.94 1478.86 2606.4 1454.67C2630.59 1429.21 2660.51 1416.48 2696.15 1416.48H3463.8C3487.98 1417.75 3507.72 1413.3 3522.99 1403.11C3539.54 1392.93 3551.64 1381.47 3559.27 1368.74C3566.91 1354.74 3570.73 1340.73 3570.73 1326.73C3570.73 1317.82 3566.91 1305.73 3559.27 1290.45C3551.64 1273.9 3539.54 1260.53 3522.99 1250.35C3507.72 1240.16 3487.98 1234.44 3463.8 1233.16H2921.48C2832.37 1230.62 2758.53 1210.25 2699.97 1172.06C2642.68 1133.87 2601.31 1090.58 2575.85 1042.21C2551.66 992.558 2539.57 942.273 2539.57 891.351C2539.57 841.703 2552.3 792.691 2577.76 744.315C2603.22 694.667 2644.59 650.747 2701.88 612.556C2759.17 574.364 2832.37 553.996 2921.48 551.45H2932.94C2940.58 550.177 2948.21 549.54 2955.85 549.54H3673.85C3709.49 549.54 3739.41 562.271 3763.6 587.731C3789.06 611.919 3801.79 641.836 3801.79 677.481ZM3562.1 677.481C3562.1 641.836 3574.19 611.919 3598.38 587.731C3623.84 562.271 3654.4 549.54 3690.04 549.54H4801.4C4837.05 549.54 4867.6 561.634 4893.06 585.822C4917.25 611.283 4929.35 641.836 4929.35 677.481C4929.35 713.126 4916.61 743.679 4891.15 769.14C4866.97 793.327 4837.05 805.421 4801.4 805.421H4375.57V1578.79C4367.93 1655.18 4325.92 1696.55 4249.54 1702.91C4213.9 1702.91 4182.71 1691.46 4155.97 1668.54C4130.51 1644.35 4117.78 1614.44 4117.78 1578.79V805.421H3690.04C3654.4 805.421 3624.48 792.691 3600.29 767.23C3574.83 743.042 3562.1 713.126 3562.1 677.481ZM5209.06 1086.13C5174.69 1021.2 5131.4 959.459 5079.21 900.899C5027.01 842.339 4976.73 810.513 4928.35 805.421H4767.95C4732.3 805.421 4702.39 792.691 4678.2 767.23C4652.74 743.042 4640.01 713.126 4640.01 677.481C4640.01 641.836 4652.1 611.919 4676.29 587.731C4701.75 562.271 4732.3 549.54 4767.95 549.54H4928.35V551.45H4947.45C5039.11 556.542 5133.95 608.1 5231.97 706.124C5280.35 755.773 5324.9 811.786 5365.64 874.165C5406.38 811.786 5451.57 755.773 5501.22 706.124C5597.97 608.1 5692.18 556.542 5783.84 551.45H5802.93V549.54H5963.33C5998.98 549.54 6028.9 562.271 6053.08 587.731C6078.54 611.919 6091.27 641.836 6091.27 677.481C6091.27 713.126 6078.54 743.042 6053.08 767.23C6028.9 792.691 5998.98 805.421 5963.33 805.421H5802.93C5754.56 810.513 5704.27 842.339 5652.08 900.899C5599.88 959.459 5556.6 1021.2 5522.23 1086.13C5514.59 1100.13 5506.95 1113.5 5499.31 1126.23C5501.86 1130.05 5504.4 1133.87 5506.95 1137.68C5541.32 1203.88 5584.6 1266.26 5636.8 1324.82C5688.99 1383.38 5739.28 1414.57 5787.65 1418.39H5948.06C5983.7 1418.39 6013.62 1431.12 6037.81 1456.58C6063.27 1480.77 6076 1510.69 6076 1546.33C6076 1581.98 6063.27 1612.53 6037.81 1637.99C6013.62 1662.18 5983.7 1674.27 5948.06 1674.27H5768.56C5676.9 1669.18 5582.7 1618.26 5485.94 1521.51C5442.66 1476.95 5402.56 1428.57 5365.64 1376.38C5328.72 1428.57 5288.62 1476.95 5245.34 1521.51C5148.59 1618.26 5054.38 1669.18 4962.72 1674.27H4783.23C4747.58 1674.27 4717.03 1662.18 4691.57 1637.99C4667.38 1612.53 4655.29 1581.98 4655.29 1546.33C4655.29 1510.69 4668.02 1480.77 4693.48 1456.58C4717.66 1431.12 4747.58 1418.39 4783.23 1418.39H4943.63C4992 1414.57 5042.29 1383.38 5094.48 1324.82C5146.68 1266.26 5189.96 1203.88 5224.33 1137.68C5226.88 1133.87 5229.43 1130.05 5231.97 1126.23C5224.33 1113.5 5216.7 1100.13 5209.06 1086.13Z" fill="url(#paint0_linear_924_3556)"/>
<path d="M824.051 801.695C777.003 768.832 765.504 704.043 798.367 656.995C831.23 609.946 896.019 598.448 943.068 631.311C1023.37 687.325 1087.5 761.265 1131.54 845.675C1175.88 930.651 1200 1025.6 1200 1123.02C1200 1288.66 1132.82 1438.67 1024.24 1547.26C915.658 1655.84 765.646 1723.02 600 1723.02C434.354 1723.02 284.342 1655.84 175.758 1547.26C67.1802 1438.67 0 1288.66 0 1123.02C0 1025.3 24.2236 930.146 68.7392 845.083C113.095 760.322 177.613 686.185 258.368 630.177C305.638 597.542 370.434 609.404 403.069 656.674C435.704 703.944 423.841 768.74 376.571 801.375C323.848 837.941 281.791 886.203 252.976 941.275C224.304 996.069 208.701 1058.26 208.701 1123.02C208.701 1231.05 252.514 1328.89 323.318 1399.7C394.127 1470.5 491.965 1514.32 600 1514.32C708.035 1514.32 805.873 1470.5 876.682 1399.7C947.486 1328.89 991.299 1231.05 991.299 1123.02C991.299 1058.47 975.795 996.482 947.301 941.866C918.511 886.678 876.571 838.329 824.051 801.695Z" fill="white"/>
<path fill-rule="evenodd" clip-rule="evenodd" d="M597.801 522.688C655.196 522.688 702.146 569.693 702.146 627.032V815.767C702.146 873.107 655.196 920.112 597.801 920.112C540.407 920.112 493.457 873.162 493.457 815.767V627.032C493.457 569.637 540.407 522.688 597.801 522.688Z" fill="white"/>
<path d="M1655.45 517.982C1721.65 517.982 1786.58 525.62 1850.23 540.897C1915.15 556.173 1976.89 579.088 2035.45 609.641C2094.01 638.921 2145.57 678.385 2190.13 728.034C2235.96 777.682 2260.78 836.879 2264.6 905.623V985.824V1594.97C2256.96 1671.36 2214.95 1712.73 2138.57 1719.1C2102.93 1719.1 2071.74 1707.64 2045 1684.72C2019.54 1660.54 2006.81 1630.62 2006.81 1594.97V964.819C2004.27 925.355 1988.99 892.893 1960.98 867.432C1934.25 840.698 1903.69 819.693 1869.32 804.416C1836.22 789.14 1801.22 777.682 1764.3 770.044C1728.65 762.406 1692.37 758.587 1655.45 758.587C1618.53 758.587 1581.62 762.406 1544.7 770.044C1509.05 777.682 1474.04 789.14 1439.67 804.416C1406.57 819.693 1376.02 840.698 1348.01 867.432C1321.28 892.893 1306.64 925.355 1304.09 964.819V1594.97C1297.73 1671.36 1256.35 1712.73 1179.97 1719.1C1144.33 1719.1 1113.14 1707.64 1086.4 1684.72C1060.94 1660.54 1048.21 1630.62 1048.21 1594.97V985.824V905.623C1052.03 836.879 1076.22 777.682 1120.78 728.034C1165.33 678.385 1216.89 638.921 1275.45 609.641C1334.01 579.088 1395.12 556.173 1458.77 540.897C1523.69 525.62 1589.25 517.982 1655.45 517.982Z" fill="white"/>
<defs>
<linearGradient id="paint0_linear_924_3556" x1="4248.83" y1="555" x2="4318.31" y2="1636.69" gradientUnits="userSpaceOnUse">
<stop stop-color="#00FCC6"/>
<stop offset="1" stop-color="#7248C6"/>
</linearGradient>
</defs>
</svg>
