<svg width="2375" height="1800" viewBox="0 0 2375 1800" fill="none" xmlns="http://www.w3.org/2000/svg">
<path d="M824.051 781.695C777.003 748.832 765.504 684.043 798.367 636.995C831.23 589.946 896.019 578.448 943.068 611.311C1023.37 667.325 1087.5 741.265 1131.54 825.675C1175.88 910.651 1200 1005.6 1200 1103.02C1200 1268.66 1132.82 1418.67 1024.24 1527.26C915.658 1635.84 765.646 1703.02 600 1703.02C434.354 1703.02 284.342 1635.84 175.758 1527.26C67.1802 1418.67 0 1268.66 0 1103.02C0 1005.3 24.2236 910.146 68.7392 825.083C113.095 740.322 177.613 666.185 258.368 610.177C305.638 577.542 370.434 589.404 403.069 636.674C435.704 683.944 423.841 748.74 376.571 781.375C323.848 817.941 281.791 866.203 252.976 921.275C224.304 976.069 208.701 1038.26 208.701 1103.02C208.701 1211.05 252.514 1308.89 323.318 1379.7C394.127 1450.5 491.965 1494.32 600 1494.32C708.035 1494.32 805.873 1450.5 876.682 1379.7C947.486 1308.89 991.299 1211.05 991.299 1103.02C991.299 1038.47 975.795 976.482 947.301 921.866C918.511 866.678 876.571 818.329 824.051 781.695Z" fill="white"/>
<path fill-rule="evenodd" clip-rule="evenodd" d="M597.801 502.688C655.196 502.688 702.146 549.693 702.146 607.032V795.767C702.146 853.107 655.196 900.112 597.801 900.112C540.407 900.112 493.457 853.162 493.457 795.767V607.032C493.457 549.637 540.407 502.688 597.801 502.688Z" fill="white"/>
<path d="M1655.45 497.982C1721.65 497.982 1786.58 505.62 1850.23 520.897C1915.15 536.173 1976.89 559.088 2035.45 589.641C2094.01 618.921 2145.57 658.385 2190.13 708.034C2235.96 757.682 2260.78 816.879 2264.6 885.623V965.824V1574.97C2256.96 1651.36 2214.95 1692.73 2138.57 1699.1C2102.93 1699.1 2071.74 1687.64 2045 1664.72C2019.54 1640.54 2006.81 1610.62 2006.81 1574.97V944.819C2004.27 905.355 1988.99 872.893 1960.98 847.432C1934.25 820.698 1903.69 799.693 1869.32 784.416C1836.22 769.14 1801.22 757.682 1764.3 750.044C1728.65 742.406 1692.37 738.587 1655.45 738.587C1618.53 738.587 1581.62 742.406 1544.7 750.044C1509.05 757.682 1474.04 769.14 1439.67 784.416C1406.57 799.693 1376.02 820.698 1348.01 847.432C1321.28 872.893 1306.64 905.355 1304.09 944.819V1574.97C1297.73 1651.36 1256.35 1692.73 1179.97 1699.1C1144.33 1699.1 1113.14 1687.64 1086.4 1664.72C1060.94 1640.54 1048.21 1610.62 1048.21 1574.97V965.824V885.623C1052.03 816.879 1076.22 757.682 1120.78 708.034C1165.33 658.385 1216.89 618.921 1275.45 589.641C1334.01 559.088 1395.12 536.173 1458.77 520.897C1523.69 505.62 1589.25 497.982 1655.45 497.982Z" fill="white"/>
</svg>
