<svg width="9674" height="1815" viewBox="0 0 9674 1815" fill="none" xmlns="http://www.w3.org/2000/svg">
<path d="M824.051 658.695C777.003 625.832 765.504 561.043 798.367 513.995C831.23 466.946 896.019 455.448 943.068 488.311C1023.37 544.325 1087.5 618.265 1131.54 702.675C1175.88 787.651 1200 882.598 1200 980.016C1200 1145.66 1132.82 1295.67 1024.24 1404.26C915.658 1512.84 765.646 1580.02 600 1580.02C434.354 1580.02 284.342 1512.84 175.758 1404.26C67.1802 1295.67 0 1145.66 0 980.016C0 882.302 24.2236 787.146 68.7392 702.083C113.095 617.322 177.613 543.185 258.368 487.177C305.638 454.542 370.434 466.404 403.069 513.674C435.704 560.944 423.841 625.74 376.571 658.375C323.848 694.941 281.791 743.203 252.976 798.275C224.304 853.069 208.701 915.264 208.701 980.016C208.701 1088.05 252.514 1185.89 323.318 1256.7C394.127 1327.5 491.965 1371.32 600 1371.32C708.035 1371.32 805.873 1327.5 876.682 1256.7C947.486 1185.89 991.299 1088.05 991.299 980.016C991.299 915.467 975.795 853.482 947.301 798.866C918.511 743.678 876.571 695.329 824.051 658.695Z" fill="#615280"/>
<path fill-rule="evenodd" clip-rule="evenodd" d="M597.801 379.688C655.196 379.688 702.146 426.693 702.146 484.032V672.767C702.146 730.107 655.196 777.112 597.801 777.112C540.407 777.112 493.457 730.162 493.457 672.767V484.032C493.457 426.637 540.407 379.688 597.801 379.688Z" fill="#615280"/>
<path d="M1792.82 599.382C1846.62 599.382 1899.38 605.589 1951.11 618.004C2003.88 630.419 2054.06 649.042 2101.65 673.872C2149.24 697.668 2191.14 729.74 2227.35 770.089C2264.59 810.438 2284.77 858.547 2287.87 914.415V979.594V1474.65C2281.67 1536.72 2247.52 1570.35 2185.45 1575.52C2156.48 1575.52 2131.13 1566.21 2109.41 1547.58C2088.71 1527.93 2078.37 1503.61 2078.37 1474.65V962.523C2076.3 930.451 2063.88 904.069 2041.12 883.377C2019.4 861.651 1994.57 844.58 1966.63 832.165C1939.73 819.75 1911.28 810.438 1881.28 804.231C1852.31 798.023 1822.82 794.919 1792.82 794.919C1762.82 794.919 1732.81 798.023 1702.81 804.231C1673.84 810.438 1645.39 819.75 1617.46 832.165C1590.56 844.58 1565.73 861.651 1542.97 883.377C1521.24 904.069 1509.34 930.451 1507.27 962.523V1474.65C1502.1 1536.72 1468.48 1570.35 1406.4 1575.52C1377.43 1575.52 1352.08 1566.21 1330.36 1547.58C1309.67 1527.93 1299.32 1503.61 1299.32 1474.65V979.594V914.415C1302.42 858.547 1322.08 810.438 1358.29 770.089C1394.5 729.74 1436.4 697.668 1484 673.872C1531.59 649.042 1581.25 630.419 1632.98 618.004C1685.74 605.589 1739.02 599.382 1792.82 599.382Z" fill="#615280"/>
<path d="M3101.4 510.778H3849.33C3882.41 511.96 3909.58 524.366 3930.85 547.998C3953.3 571.629 3964.53 599.986 3964.53 633.07C3958.62 703.963 3920.22 742.363 3849.33 748.271H3161.66C3116.76 750.634 3079.54 767.767 3050 799.669C3020.46 831.571 2998.61 868.199 2984.43 909.554C2971.43 949.726 2964.93 991.081 2964.93 1033.62C2964.93 1076.15 2971.43 1118.1 2984.43 1159.45C2998.61 1199.63 3020.46 1235.66 3050 1267.56C3079.54 1299.47 3116.76 1316.6 3161.66 1318.96H3700.45C3721.72 1317.78 3732.94 1305.97 3734.12 1283.52V1180.72C3732.94 1157.09 3721.72 1145.27 3700.45 1145.27H3246.73C3213.65 1145.27 3185.29 1134.05 3161.66 1111.6C3139.21 1087.97 3127.99 1059.61 3127.99 1026.53C3127.99 993.444 3139.21 965.087 3161.66 941.456C3185.29 919.006 3213.65 907.781 3246.73 907.781H3852.87C3885.95 907.781 3914.31 919.006 3937.94 941.456C3959.21 963.905 3970.43 991.081 3971.62 1022.98V1026.53V1441.25C3970.43 1473.16 3959.21 1499.74 3937.94 1521.01C3915.49 1543.46 3888.32 1555.27 3856.41 1556.46H3101.4C3018.69 1551.73 2950.16 1520.42 2895.81 1462.52C2842.64 1403.44 2804.24 1336.69 2780.61 1262.25C2758.16 1187.81 2746.93 1111.6 2746.93 1033.62C2746.93 955.634 2758.75 879.424 2782.38 804.986C2806.01 730.548 2844.41 664.381 2897.58 606.485C2950.75 547.407 3018.69 515.505 3101.4 510.778ZM4756.76 1586.59C4695.32 1586.59 4634.47 1579.5 4574.21 1565.32C4515.13 1551.14 4458.42 1530.46 4404.07 1503.29C4349.71 1474.93 4301.86 1437.71 4260.51 1391.63C4219.15 1345.55 4196.7 1290.61 4193.16 1226.8V1152.36V849.294C4193.16 816.211 4204.97 789.035 4228.6 767.767C4253.42 745.317 4282.37 734.093 4315.45 734.093C4386.34 740 4424.74 778.401 4430.65 849.294V927.277V1171.86C4433.01 1208.49 4446.6 1239.21 4471.41 1264.02C4497.41 1287.65 4525.77 1306.56 4556.49 1320.73C4588.39 1334.91 4620.88 1345.55 4653.96 1352.64C4688.23 1359.73 4722.49 1363.27 4756.76 1363.27C4791.03 1363.27 4824.7 1359.73 4857.78 1352.64C4892.05 1345.55 4924.54 1334.91 4955.26 1320.73C4987.16 1306.56 5015.52 1287.65 5040.33 1264.02C5066.33 1239.21 5080.51 1208.49 5082.87 1171.86V927.277V849.294C5082.87 816.211 5094.68 789.035 5118.32 767.767C5143.13 745.317 5172.08 734.093 5205.16 734.093C5276.05 740 5315.05 778.401 5322.13 849.294V1152.36V1226.8C5318.59 1290.61 5295.55 1345.55 5253.01 1391.63C5211.66 1437.71 5163.81 1474.93 5109.45 1503.29C5055.1 1530.46 4997.8 1551.14 4937.54 1565.32C4878.46 1579.5 4818.2 1586.59 4756.76 1586.59ZM6539.73 1462.52V1035.39C6539.73 1005.85 6524.37 990.49 6493.65 989.309H5873.33C5850.88 990.49 5831.38 1000.53 5814.84 1019.44C5798.3 1037.16 5785.89 1058.43 5777.62 1083.24C5770.53 1106.87 5766.99 1131.1 5766.99 1155.91C5766.99 1179.54 5770.53 1203.76 5777.62 1228.57C5785.89 1252.2 5798.3 1273.47 5814.84 1292.38C5831.38 1310.1 5850.88 1318.96 5873.33 1318.96H6327.05C6360.13 1318.96 6387.9 1330.78 6410.35 1354.41C6433.98 1376.86 6445.79 1404.63 6445.79 1437.71C6445.79 1470.79 6433.98 1498.56 6410.35 1521.01C6387.9 1544.64 6360.13 1556.46 6327.05 1556.46H5880.42C5797.71 1555.27 5729.18 1532.23 5674.83 1487.33C5621.66 1441.25 5583.26 1389.86 5559.63 1333.14C5537.18 1275.25 5525.95 1215.58 5525.95 1154.14C5525.95 1095.06 5537.77 1037.16 5561.4 980.447C5585.03 922.551 5623.43 871.153 5676.6 826.254C5729.77 780.173 5808.34 755.361 5912.32 751.816H6656.7C6689.79 751.816 6718.14 763.041 6741.77 785.49C6765.4 806.758 6777.81 833.934 6778.99 867.018V1462.52C6778.99 1495.61 6766.59 1523.37 6741.77 1545.82C6718.14 1567.09 6689.79 1577.72 6656.7 1577.72C6585.81 1571.82 6546.82 1533.41 6539.73 1462.52ZM7044.84 975.13C7067.29 918.415 7105.1 867.608 7158.27 822.709C7212.62 776.629 7281.15 752.997 7363.86 751.816H8030.26C8063.34 751.816 8091.11 763.631 8113.56 787.263C8137.19 809.712 8149.01 837.479 8149.01 870.562C8149.01 903.646 8137.19 932.003 8113.56 955.634C8091.11 978.084 8063.34 989.309 8030.26 989.309H7356.77C7334.32 989.309 7314.83 998.761 7298.29 1017.67C7281.74 1035.39 7268.75 1056.66 7259.3 1081.47C7251.02 1106.28 7246.89 1129.91 7246.89 1152.36V1462.52C7239.8 1533.41 7200.81 1571.82 7129.91 1577.72C7096.83 1577.72 7067.88 1567.09 7043.07 1545.82C7019.44 1523.37 7007.62 1495.61 7007.62 1462.52V1154.14H7009.4C7009.4 1092.69 7021.21 1033.03 7044.84 975.13ZM9311.66 597.623C9318.75 526.729 9357.74 488.329 9428.63 482.421C9461.71 482.421 9490.07 493.646 9513.7 516.095C9538.52 537.364 9550.92 564.539 9550.92 597.623V1441.25C9549.74 1474.34 9537.33 1502.1 9513.7 1524.55C9490.07 1545.82 9461.71 1556.46 9428.63 1556.46H8684.25C8580.27 1552.91 8501.7 1528.69 8448.53 1483.79C8395.36 1437.71 8356.96 1386.31 8333.33 1329.6C8309.7 1271.7 8297.88 1213.21 8297.88 1154.14C8297.88 1092.69 8309.11 1033.62 8331.56 976.902C8355.19 919.006 8393.59 867.608 8446.76 822.709C8501.11 776.629 8569.64 752.997 8652.35 751.816H9098.98C9132.06 751.816 9159.83 763.631 9182.28 787.263C9205.91 809.712 9217.72 837.479 9217.72 870.562C9217.72 903.646 9205.91 932.003 9182.28 955.634C9159.83 978.084 9132.06 989.309 9098.98 989.309H8645.26C8622.81 989.309 8603.31 998.761 8586.77 1017.67C8570.23 1035.39 8557.82 1056.66 8549.55 1081.47C8542.46 1105.1 8538.92 1128.73 8538.92 1152.36C8538.92 1177.18 8542.46 1201.99 8549.55 1226.8C8557.82 1250.43 8570.23 1271.7 8586.77 1290.61C8603.31 1308.33 8622.81 1317.78 8645.26 1318.96H9265.58C9296.3 1317.78 9311.66 1302.42 9311.66 1272.88V597.623Z" fill="white"/>
</svg>
